<svg xmlns="http://www.w3.org/2000/svg" width="143" height="32" viewBox="0 0 143 32"><path fill="#1e3174" d="M51.197 20.519l-2.04-4.172h-2.594l2.441-5.21 6.151 12.447h5.731L50.885 4.53h-3.78l-9.628 19.05 5.715.002 1.441-3.063h6.564zM81.454 16.721c2.939-.915 4.321-3.141 4.321-5.855 0-3.472-2.378-6.287-7.272-6.287h-9.886v19.054l4.584-.002-.002-15.028h5.618c1.663.004 2.354 1.027 2.354 2.252s-.726 2.208-2.387 2.208h-3.932l5.947 10.568h4.702s-4.07-6.906-4.048-6.91zM66.605 4.54h-4.739v19.05h4.739V4.54zM119.798 4.487l.002 10.712c0 3.274-1.914 4.649-4.266 4.649-2.356 0-4.253-1.369-4.253-4.645V4.487h-4.748v10.744c0 6.851 4.024 8.848 9.001 8.848 4.979 0 9.012-1.997 9.012-8.848l-.002-10.744h-4.746zM98.809 19.562h-6.688V15.81h6.69c1.099.015 1.988.839 1.988 1.864 0 1.029-.891 1.888-1.99 1.888zM92.12 8.556h6.57c.902.009 1.663.704 1.663 1.611s-.798 1.63-1.7 1.622H92.12V8.556zm10.467 5.249c1.236-.872 1.703-2.313 1.703-3.9 0-2.984-2.511-5.375-5.594-5.375H87.537v19.052l11.599.007c3.255 0 5.968-2.515 5.968-5.589 0-2.006-1.206-3.49-2.516-4.196zM136.463 11.913c-3.843-.835-5.142-1.205-5.142-2.424 0-1.077 1.391-1.617 3.59-1.617 2.075 0 4.578.883 6.053 1.766l1.498-3.878c-2.23-.927-4.911-1.814-8.456-1.814-4.649 0-7.553 2.718-7.553 6.04 0 3.326 2.393 4.787 7.13 5.792 3.679.778 4.674 1.242 4.674 2.387 0 1.142-1.476 1.563-3.468 1.563-2.577 0-5.059-.857-7.398-1.864l-1.413 3.782c2.795 1.297 5.698 2.334 9.157 2.334 5.763 0 8.115-2.755 8.115-5.964 0-2.854-1.979-5.057-6.786-6.103zM50.434 31.901h3.562v-.879h-2.559v-.82h2.551v-.881h-2.551v-.706h2.559v-.879h-3.562v4.166zM47.271 31.15l-3.202-3.438h-.863v4.19h.695v-3.438l3.207 3.438h.857v-4.19h-.695v3.438zM106.164 29.642l-1.783-1.957h-.863l2.293 2.535v1.657h.695V30.22l2.293-2.535h-.863l-1.772 1.957zM61.419 27.734h-2.032v2.583h1.014v-1.703h1.018c.58 0 1.053.547 1.053 1.181 0 .682-.456 1.227-1.053 1.227h-2.496l-1.715-3.287h-.824l-2.091 4.166h1.243l.31-.671v.002h1.432l-.434-.881h-.593l.545-1.164 1.338 2.714h3.285c1.195 0 2.097-.9 2.097-2.058 0-1.195-.87-2.108-2.097-2.108zM39.046 30.334l1.072-2.027 1.064 2.027h-2.136zm1.505-2.622h-.874l-2.219 4.19h.759l.486-.939h2.819l.486.939h.759l-2.217-4.19zM91.391 29.649h-2.507v-1.332h2.459c.567 0 .854.225.854.689 0 .418-.279.643-.806.643zm1.515-.654c0-.793-.538-1.31-1.395-1.31h-3.324v4.192h.697v-1.598h2.496c.996 0 1.526-.456 1.526-1.284zM84.139 30.221l-2.014-2.535h-.865v4.192h.697v-3.427h.017l2.16 2.731 2.176-2.731h.017v3.427h.695v-4.192h-.861l-2.021 2.535zM102.328 31.125l-3.202-3.44h-.863v4.194h.695v-3.44l3.207 3.44h.859v-4.194h-.697v3.44zM66.079 29.356c-.835-.179-1.118-.259-1.118-.523 0-.231.303-.346.782-.346.451 0 .994.188 1.314.379l.327-.833c-.486-.2-1.068-.39-1.838-.39-1.011 0-1.641.584-1.641 1.299s.519 1.029 1.548 1.245c.8.166 1.016.266 1.016.514 0 .246-.32.336-.754.336-.56 0-1.099-.185-1.607-.401h-.002l-.305.813c.608.277 1.238.501 1.99.501 1.253 0 1.764-.591 1.764-1.282 0-.613-.43-1.086-1.476-1.312zM93.988 30.308l1.07-2.025 1.064 2.025h-2.134zm.63-2.622l-2.217 4.192h.757l.488-.939h2.818l.488.939h.757l-2.217-4.192h-.874zM77.744 31.362c-1.203 0-1.975-.643-1.975-1.585 0-.915.807-1.587 1.975-1.587.527 0 1.001.15 1.336.394.419.307.626.706.626 1.194 0 .937-.763 1.585-1.962 1.585zm1.836-3.241c-.466-.355-1.123-.567-1.837-.567-.719 0-1.373.212-1.842.567-.567.429-.855.983-.855 1.655 0 .682.283 1.238.844 1.661.456.347 1.123.562 1.853.562.728 0 1.378-.209 1.842-.556.56-.423.844-.985.844-1.666 0-.667-.29-1.227-.85-1.655zM72.148 28.19c.769 0 1.343.207 1.783.676l.632-.225c-.551-.711-1.384-1.088-2.415-1.088-.719 0-1.373.209-1.835.562-.569.429-.852.983-.852 1.655 0 .684.277 1.245.839 1.668.458.347 1.118.556 1.848.556 1.042 0 1.776-.285 2.385-.996l-.597-.329c-.445.479-.996.687-1.75.687-1.238 0-2.001-.643-2.001-1.587 0-.907.793-1.58 1.962-1.58zM4.815 15.999h-2.23a7.333 7.333 0 0 0 14.664-.002h2.487a8.702 8.702 0 0 1-8.7 8.702 8.686 8.686 0 0 1-6.91-3.414 9.81 9.81 0 0 0 8.275 4.532c5.423 0 9.818-4.397 9.818-9.82h2.485c0 6.178-5.007 11.187-11.185 11.187a11.17 11.17 0 0 1-8.939-4.46 12.294 12.294 0 0 0 10.304 5.578c6.795 0 12.305-5.509 12.305-12.305h2.23a7.331 7.331 0 1 0-14.664.002h-2.487a8.7 8.7 0 0 1 15.61-5.286 9.813 9.813 0 0 0-8.277-4.532c-5.421 0-9.816 4.395-9.816 9.818H7.3c0-6.178 5.007-11.185 11.185-11.185 3.653 0 6.897 1.752 8.937 4.46A12.29 12.29 0 0 0 17.12 3.696c-6.795 0-12.305 5.508-12.305 12.303z"/><path fill="#1e3174" d="M16.001 29.67c-7.549 0-13.67-6.123-13.67-13.67 0-7.551 6.119-13.672 13.668-13.672 7.551 0 13.674 6.121 13.674 13.67S23.55 29.67 16.001 29.67zm0-29.672c-8.837 0-16 7.165-16 16 0 8.839 7.163 16.002 16 16.002s16-7.163 16-16.002c0-8.835-7.163-16-16-16z"/></svg>