<svg width="960" height="600" xmlns="http://www.w3.org/2000/svg"><g text-anchor="middle" font-size="10" font-family="Impact"><text transform="rotate(60 136.151 950.725) scale(1.85328)" fill="#6b6ecf">jQuery</text><text transform="rotate(30 -400.028 1078.305) scale(1.85328)" fill="#8c6d31">Sass</text><text transform="rotate(-60 734.54 -427.628) scale(1.85328)" fill="#637939">HTML5</text><text transform="translate(654.208 303.707) scale(1.85328)" fill="#8ca252">CSS3</text><text transform="rotate(60 67.708 654.263) scale(1.85328)" fill="#b5cf6b">PHP</text><text transform="translate(515.212 238.842) scale(1.85328)" fill="#9c9ede">MySQL</text><text transform="rotate(60 57.697 625.804) scale(1.85328)" fill="#7b4173">javascript</text><text transform="rotate(-60 521.927 -122.383) scale(1.85328)" fill="#cedb9c">AngularJS</text><text transform="rotate(60 -202.928 585.816) scale(1.85328)" fill="#bd9e39">WEB</text><text transform="rotate(-60 709.436 -313.722) scale(1.85328)" fill="#e7ba52">Frontend</text><text transform="rotate(60 126.304 855.831) scale(1.85328)" fill="#e7cb94">Perl</text><text transform="rotate(-60 461.589 -458.956) scale(1.85328)" fill="#843c39">HighchartJs</text><text transform="rotate(-60 535.201 -315.877) scale(1.85328)" fill="#ad494a">jQgrid</text><text transform="rotate(30 -231.748 1014.682) scale(1.85328)" fill="#d6616b">database</text><text transform="translate(900.695 298.147) scale(1.85328)" fill="#7b4173">Polymer</text><text transform="rotate(-30 615.343 -776.587) scale(1.85328)" fill="#a55194">Webcomponents</text><text transform="rotate(30 -604.147 1644.503) scale(1.85328)" fill="#cedb9c">SVG</text><text transform="rotate(60 -247.522 534.523) scale(1.85328)" fill="#ce6dbd">Tests</text><text transform="rotate(60 196.143 691.39) scale(1.85328)" fill="#de9ed6">openLayer</text><text transform="rotate(-60 469.077 -127.216) scale(1.85328)" fill="#393b79">googlemaps</text></g></svg>