<svg xmlns="http://www.w3.org/2000/svg" width="32" height="32" viewBox="0 0 32 32"><path fill="#e44d26" d="M27.307 6.273l-2.06 23.079-9.26 2.567-9.235-2.564L4.694 6.272h22.614z"/><path fill="#f16529" d="M16 29.957l7.483-2.075L25.244 8.16h-9.243v21.797z"/><path fill="#ebebeb" d="M11.995 13.822H16v-2.831H8.901l.068.759.696 7.801H16V16.72h-3.746l-.259-2.899zM12.633 20.968H9.791l.397 4.445 5.799 1.61.013-.004v-2.945l-.012.003-3.153-.851-.202-2.258z"/><path d="M6.797 0h1.439v1.421h1.316V0h1.439v4.304H9.552V2.863H8.236v1.441H6.797V0zM12.883 1.427h-1.267V0h3.972v1.427h-1.267v2.877h-1.439V1.427zM16.219 0h1.5l.923 1.512L19.564 0h1.501v4.304h-1.433V2.171l-.99 1.53h-.025l-.991-1.53v2.133h-1.408V0zM21.78 0h1.439v2.882h2.023v1.423H21.78V.001z"/><path fill="#fff" d="M15.99 19.552h3.486l-.329 3.672-3.157.852v2.945l5.804-1.608.043-.478.665-7.453.069-.76H15.99v2.831zM15.99 13.815v.007h6.838l.057-.636.129-1.435.068-.759H15.99v2.824z"/></svg>