<svg xmlns="http://www.w3.org/2000/svg" width="32" height="32" viewBox="0 0 32 32"><path fill="#5d87a1" d="M7.941 24.259H6.74a66.478 66.478 0 0 0-.351-5.718h-.011L4.55 24.259h-.914l-1.817-5.718h-.01a93.12 93.12 0 0 0-.255 5.718H.459c.071-2.551.248-4.942.531-7.175h1.488l1.732 5.272h.011l1.743-5.272h1.424c.312 2.615.496 5.006.553 7.175zM13.149 18.966c-.489 2.653-1.134 4.581-1.935 5.784-.624.926-1.307 1.39-2.051 1.39-.198 0-.443-.06-.733-.179v-.64c.142.02.308.032.499.032.348 0 .627-.096.84-.287.255-.233.382-.496.382-.786 0-.199-.099-.606-.297-1.222l-1.318-4.092h1.18l.946 3.061c.213.695.301 1.18.266 1.457.517-1.381.879-2.888 1.084-4.518l1.137.001z"/><path fill="#f8981d" d="M29.134 24.259h-3.411v-7.175h1.147v6.291h2.264v.883zM24.83 24.433l-1.319-.651c.117-.096.229-.2.33-.32.561-.658.84-1.632.84-2.922 0-2.374-.931-3.561-2.795-3.561-.914 0-1.627.301-2.137.904-.56.659-.84 1.629-.84 2.912 0 1.261.248 2.186.744 2.773.454.532 1.137.798 2.052.798.341 0 .654-.042.939-.126l1.717 1 .468-.806zm-4.273-1.609c-.291-.467-.436-1.218-.436-2.253 0-1.806.549-2.711 1.648-2.711.574 0 .995.216 1.264.648.29.468.436 1.212.436 2.232 0 1.821-.549 2.732-1.647 2.732-.575 0-.995-.215-1.265-.649zM18.409 22.271c0 .608-.223 1.108-.669 1.499-.446.389-1.045.585-1.795.585-.702 0-1.382-.224-2.041-.67l.308-.616c.567.284 1.08.425 1.54.425.432 0 .77-.096 1.015-.286s.391-.458.391-.797c0-.426-.297-.791-.843-1.096-.503-.276-1.509-.853-1.509-.853-.545-.397-.818-.824-.818-1.526 0-.581.204-1.051.611-1.408.408-.359.934-.537 1.579-.537.666 0 1.271.179 1.817.532l-.277.616a3.514 3.514 0 0 0-1.381-.297c-.368 0-.652.088-.849.266a.89.89 0 0 0-.322.681c0 .424.304.793.864 1.104.509.277 1.54.864 1.54.864.559.397.838.819.838 1.516z"/><path fill="#5d87a1" d="M30.574 14.681c-.694-.018-1.231.052-1.682.243-.13.052-.337.052-.355.216.07.07.078.182.14.278.104.173.285.407.451.528.182.139.364.277.555.398.337.209.719.33 1.048.538.191.121.382.277.573.407.094.069.155.182.277.225v-.026c-.061-.078-.079-.191-.139-.277l-.26-.251a4.13 4.13 0 0 0-.901-.875c-.277-.191-.884-.451-.997-.771l-.018-.018c.191-.018.417-.087.598-.14.295-.078.564-.06.867-.138.139-.035.277-.078.417-.121v-.078c-.157-.156-.269-.364-.434-.511a11.571 11.571 0 0 0-1.43-1.066c-.269-.174-.615-.286-.902-.434-.103-.052-.277-.078-.338-.165-.156-.191-.243-.442-.356-.668a21.275 21.275 0 0 1-.71-1.509c-.156-.338-.252-.675-.442-.988-.893-1.474-1.864-2.366-3.355-3.242-.32-.182-.702-.26-1.109-.356l-.65-.034c-.139-.061-.278-.226-.399-.304-.495-.312-1.768-.988-2.132-.095-.234.564.347 1.119.546 1.405.147.199.338.425.441.65.061.147.078.304.139.459.139.382.268.806.451 1.162.095.181.199.372.32.536.07.096.191.138.217.295-.121.173-.13.433-.2.65-.312.979-.19 2.193.252 2.913.138.217.468.694.91.511.391-.156.304-.65.417-1.083.026-.105.009-.173.061-.242v.017c.121.243.243.476.355.719.269.424.737.867 1.127 1.161.208.157.372.425.632.521v-.026h-.017c-.053-.078-.13-.113-.199-.173a4.21 4.21 0 0 1-.451-.52 11.167 11.167 0 0 1-.97-1.578c-.14-.269-.26-.563-.373-.832-.052-.104-.052-.26-.14-.312-.13.19-.32.355-.416.589-.165.373-.182.832-.243 1.31l-.034.017c-.276-.069-.372-.355-.477-.598-.26-.616-.303-1.604-.078-2.315.06-.182.321-.754.217-.927-.052-.166-.226-.26-.321-.391a3.477 3.477 0 0 1-.312-.555c-.208-.485-.313-1.023-.536-1.508-.105-.226-.286-.46-.434-.668-.165-.234-.347-.399-.478-.676-.043-.095-.104-.251-.034-.355.017-.07.052-.096.121-.113.112-.095.433.026.546.078.321.13.59.251.858.433.121.087.252.252.407.295h.182c.277.06.589.017.85.095.459.148.875.364 1.248.598a7.694 7.694 0 0 1 2.704 2.965c.104.199.148.382.243.589.183.425.409.859.59 1.275.182.407.356.823.616 1.161.13.182.651.277.884.373.173.078.442.147.598.242.295.182.589.39.866.59.138.104.572.321.598.494zm-8.842-7.532c-.147 0-.251.017-.355.044v.017h.017c.07.138.191.235.278.355.07.139.13.277.199.416l.017-.017c.122-.087.183-.225.183-.434-.053-.061-.061-.121-.105-.182-.051-.087-.164-.13-.234-.2z"/><path fill="#f8981d" d="M31.4 24.258h.18v-.879h-.269l-.22.6-.239-.6h-.259v.879h.17v-.669h.009l.25.669h.129l.249-.669v.669zm-1.447 0h.19v-.73h.249v-.149h-.698v.149h.259l.001.73z"/></svg>