<svg xmlns="http://www.w3.org/2000/svg" width="32" height="32" viewBox="0 0 32 32"><path fill="#131b28" d="M13.673 14.911l-.205.726.205-.725zM14.726 16.486zM14.668 17.57l-1.351.005 1.351-.005zM14.951 16.488zM14.787 17.478zM19.762 13.343zM18.635 13.343zM19.687 13.25h-.938a.124.124 0 0 0-.115.093l-.666 3.081a.123.123 0 0 1-.115.092h-.664c-.657 0-.581-.454-.446-1.076l.004-.019.015-.078.003-.015.03-.16.032-.171.034-.174.151-.739.151-.739c.01-.051-.024-.093-.076-.093h-.963a.122.122 0 0 0-.114.093l-.414 1.964v.001l-.019.091c-.238 1.088-.175 2.126 1.12 2.159l.038.001h2.034a.122.122 0 0 0 .114-.093l.877-4.123a.074.074 0 0 0-.075-.093zM23.428 16.526c.052 0 .086.042.076.093l-.091.445zM23.322 17.51l.091-.445-.091.445zM23.208 17.603c-.276.002-1.105.009-1.729.009.759 0 1.728-.008 1.728-.008zM20.92 15.953c-.001-.049.055-.133.107-.133l-.117-.002c-.053.531.01.135.01.135zM21.565 17.611h-.018.018z"/><path fill="#131b28" d="M23.428 16.526c.052 0 .086.042.076.093l-.106.518zM22.009 17.61zM21.779 17.611zM21.709 17.611h-.022.022zM21.637 17.611zM21.765 17.611h-.057.057zM22.006 17.61l-.226.001.226-.001zM23.209 17.603l-1.2.007 1.2-.007zM23.322 17.51l.076-.373-.076.373zM21.687 17.611zM21.547 17.612zM21.618 17.611zM7.9 15.964l.146-.646-.167.738-.16.752.14-.659.041-.185zM9.643 13.239h-1.03a.126.126 0 0 0-.116.092l-.098.431-.098.431c-.011.051.022.092.074.092h1.038a.124.124 0 0 0 .115-.092l.094-.431.094-.431c.011-.051-.022-.092-.074-.092zM9.419 14.673l-.302 1.397.302-1.397zM6.427 19.303s.519.007.849.007c-.251 0-.665-.005-.85-.007zM8.191 14.673z"/><path fill="#131b28" d="M9.345 14.581H8.307a.126.126 0 0 0-.116.092l-.146.646-.146.646-.041.185-.14.659-.14.659a1.881 1.881 0 0 1-.05.182s-.194.577-.52.57l-.041-.001-.282-.005a.123.123 0 0 0-.116.09l-.108.453-.108.452c-.012.051.021.092.072.093.185.002.599.007.85.007.814 0 1.244-.451 1.519-1.749l.624-2.887c.011-.051-.023-.092-.075-.092zM24.09 17.559a.074.074 0 0 1-.075-.093l.781-3.657zM25.175 17.466z"/><path fill="#131b28" d="M24.026 17.512a.412.412 0 0 1 .008-.139l.371-1.736-.39 1.829a.074.074 0 0 0 .075.093h.095c-.052 0-.152-.021-.158-.046zM25.113 17.538a.503.503 0 0 1-.146.021h.095a.12.12 0 0 0 .113-.093l.019-.093c-.01.051-.052.153-.081.165zM25.333 16.685l.139-.689v.001l-.139.688zM28.414 14.054l.043.178c.012.051-.021.092-.073.092zM25.194 17.373zM28.371 13.872z"/><path fill="#131b28" d="M25.472 15.996l.038-.184.149-.697-.169.79-.019.092zM24.809 13.749l-.032.153-.371 1.736.39-1.829.013-.06z"/><path fill="#131b28" d="M28.457 14.231l-.043-.178-.064-.274c-.084-.328-.332-.517-.869-.517l-2.474-.002a.122.122 0 0 0-.114.093l-.038.181-.058.274-.761 3.565c-.011.051-.015.113-.008.139s.106.046.158.046h.782c.052 0 .118-.009.146-.021s.07-.114.081-.165l.139-.688.139-.688v-.001l.019-.092.169-.79.149-.698a.122.122 0 0 1 .114-.092l2.461-.001c.052 0 .085-.041.073-.092z"/><path fill="#131b28" d="M31.625 12.624l-.189.001h-.788a.2.2 0 0 0-.148.078l-1.742 2.552c-.029.043-.063.037-.075-.014l-.128-.562a.125.125 0 0 0-.116-.092h-1.12c-.052 0-.083.041-.069.091l.502 1.758c.014.05.015.132.002.183l-.219.851c-.013.05.019.092.071.092h1.107a.128.128 0 0 0 .118-.092l.219-.851a.55.55 0 0 1 .081-.167l2.828-3.753c.031-.042.014-.075-.038-.075l-.297.002zM22.729 14.826v-.001a.115.115 0 0 1-.111.098h-1.42c-.049 0-.074-.033-.067-.075l.001-.003h-.001l.001-.005.006-.024c.136-.361.412-.597.931-.597.584 0 .698.286.659.607zm-.417-1.639c-1.822 0-2.254 1.106-2.496 2.223-.242 1.138-.221 2.202 1.664 2.202H21.779l.226-.001h.004l1.2-.007a.124.124 0 0 0 .113-.093l.091-.446.091-.445c.01-.051-.024-.093-.076-.093h-1.695c-.674 0-.874-.179-.801-.706H23.644a.112.112 0 0 0 .099-.07c.003-.008.006-.015.007-.024.402-1.518.287-2.54-1.437-2.54zM13.699 14.82l-.026.091-.409 1.45a.132.132 0 0 1-.12.091h-1.083c-.822 0-1.022-.643-.822-1.59.2-.969.592-1.572 1.401-1.633 1.105-.083 1.326.694 1.059 1.591zm.743 1.577s.511-1.24.627-1.956c.158-.959-.322-2.349-2.176-2.349-1.843 0-2.644 1.327-2.949 2.771-.305 1.453.095 2.728 1.928 2.718l2.798-.01a.132.132 0 0 0 .119-.092l.235-.898c.013-.05-.019-.092-.071-.092l-.451-.003c-.044 0-.07-.029-.064-.067a.083.083 0 0 1 .006-.021z"/><path fill="#131b28" d="M23.568 15.567c0 .034-.028.062-.062.062s-.062-.028-.062-.062.028-.062.062-.062.062.028.062.062z"/><path fill="#0868ac" d="M.365 13.955c-.509.732-.446 1.683-.057 2.461a.954.954 0 0 0 .047.09.44.44 0 0 1 .011.02l.02.036.037.064.021.035.043.067.018.028.062.09.002.002.011.014c.018.026.038.051.057.076l.021.027.053.065.02.024a5.47 5.47 0 0 0 .074.086l.003.003c.024.027.049.052.074.078l.024.024a3.2 3.2 0 0 0 .164.155l.001.001.014.012a2.206 2.206 0 0 0 .105.086l.062.048.033.025.069.05a.541.541 0 0 1 .025.018l.007.005.067.044.029.019a2.952 2.952 0 0 0 .213.124l.044.022c.019.01.037.02.057.029l.013.006.023.011c.03.014.059.028.09.041l.019.009.104.043.025.01.099.037.012.004c.036.013.073.024.11.036l.027.008c.038.011.075.025.113.032 2.462.449 3.177-1.479 3.177-1.479-.601.782-1.667.989-2.677.759-.038-.009-.075-.021-.113-.032l-.028-.009a4.589 4.589 0 0 1-.124-.04l-.096-.035-.027-.011a3.175 3.175 0 0 1-.103-.043l-.021-.009-.087-.041-.025-.012-.067-.034-.045-.024-.081-.045-.027-.015a9.684 9.684 0 0 1-.105-.064l-.028-.019-.075-.05-.024-.017-.071-.051a2.79 2.79 0 0 1-.095-.074l-.029-.023a2.538 2.538 0 0 1-.079-.067l-.009-.007-.084-.076-.024-.023-.06-.059a.51.51 0 0 0-.024-.023l-.074-.078-.004-.004-.075-.085-.02-.023a3.933 3.933 0 0 1-.054-.067l-.02-.025a2.556 2.556 0 0 1-.062-.083c-.561-.765-.762-1.82-.314-2.686z"/><path fill="#0868ac" d="M1.945 13.338c-.368.53-.348 1.239-.061 1.799.048.094.102.185.163.272.055.079.116.173.189.237.027.029.054.058.083.086l.022.021c.027.027.055.053.084.078l.003.003.001.001a2.693 2.693 0 0 0 .224.174l.003.002a.763.763 0 0 0 .047.031l.022.015.076.047.011.006.068.038.024.013c.016.008.031.017.047.024l.007.003c.032.016.065.031.099.046l.022.009.081.033.035.013.074.026.034.011c.035.011.07.025.107.031 1.901.315 2.339-1.149 2.339-1.149-.396.57-1.162.841-1.979.629l-.108-.031-.032-.01-.075-.026-.034-.013a1.377 1.377 0 0 1-.081-.033l-.022-.009a2.27 2.27 0 0 1-.099-.046l-.05-.025-.029-.015a1.98 1.98 0 0 1-.063-.035l-.015-.008-.076-.047-.023-.015-.049-.033c-.035-.024-.069-.05-.103-.075l-.023-.018a2.296 2.296 0 0 1-.776-1.106c-.141-.454-.111-.964.134-1.377z"/><path fill="#0868ac" d="M3.274 12.878a1.11 1.11 0 0 0-.088 1.069 1.505 1.505 0 0 0 .911.823l.021.007c.022.007.045.015.068.02 1.049.203 1.334-.539 1.41-.648-.249.359-.668.445-1.183.32-.041-.01-.085-.025-.124-.038a1.56 1.56 0 0 1-.407-.219c-.46-.349-.746-1.015-.446-1.557zM15.094 19.098l-.303.689h-.334l.027-.626-.246.626h-.323l-.009-.689.036-.17h.229l-.044.681.254-.681h.319l-.023.689.252-.689h.2l-.036.17zM15.621 19.302c.029-.135.021-.16-.048-.16h-.105l-.067.315-.103.33h-.195l.16-.748.023-.109h.178l.023.05s.103-.061.204-.061c.214 0 .197.162.151.382h-.22zM16.255 18.821c-.086 0-.141-.025-.12-.13.023-.105.09-.13.174-.13s.141.025.118.13c-.021.103-.088.13-.172.13zm-.092.966h-.193l.038-.336.067-.311-.134-.029.038-.183h.368l-.183.859zM17.001 19.11l-.242.03-.069.328c-.019.09-.019.116.061.116h.162l-.034.172s-.147.044-.21.044c-.248 0-.246-.137-.202-.34l.067-.321-.134-.029.04-.183h.141l.08-.216h.191l-.046.216h.235l-.04.185zM17.503 19.121c-.113 0-.172.059-.195.164l.323-.027c.015-.071 0-.137-.128-.137zm-.227.319c-.015.105.025.141.16.141h.338l-.034.16s-.204.057-.355.057c-.376 0-.38-.212-.332-.439.048-.223.134-.443.498-.443.351 0 .368.212.282.525h-.556zM18.603 19.787h-.193l.038-.336.137-.639-.135-.031.04-.183h.368l-.254 1.189zM19.301 19.121c-.114 0-.172.059-.195.164l.324-.027c.015-.071 0-.137-.128-.137zm-.227.319c-.015.105.025.141.16.141h.338l-.034.16s-.204.057-.355.057c-.376 0-.38-.212-.332-.439.048-.223.134-.443.498-.443.351 0 .368.212.282.525h-.557zM20.517 19.132l-.313.002c-.143 0-.158.044-.168.09l-.009.042.454.034s.002.145-.017.227c-.027.137-.168.275-.422.275-.126 0-.33-.048-.33-.048l.036-.166h.313c.139 0 .158-.038.166-.076l.01-.055-.445-.034s-.017-.111.006-.223c.034-.151.172-.281.426-.281.126 0 .33.046.33.046l-.038.166zM21.362 19.132l-.313.002c-.143 0-.157.044-.168.09l-.009.042.454.034s.002.145-.017.227c-.027.137-.168.275-.422.275-.126 0-.33-.048-.33-.048l.036-.166h.313c.139 0 .157-.038.166-.076l.01-.055-.445-.034s-.017-.111.006-.223c.034-.151.172-.281.427-.281.126 0 .33.046.33.046l-.038.166zM21.626 19.924h-.168l.006-.126c-.061-.004-.092-.048-.078-.122.023-.105.088-.13.174-.13.084 0 .141.025.118.13l-.053.248zM22.75 19.14c-.126 0-.17.076-.2.214s-.021.221.105.221h.174l.097-.435h-.177zm.288.536l-.023.111-.176-.002-.025-.055s-.156.067-.26.067c-.269 0-.282-.22-.233-.443.048-.227.153-.441.42-.441.097 0 .227.048.227.048l.107-.363h.193l-.229 1.078zM23.733 19.132c-.164 0-.216.092-.246.227-.027.137-.015.229.147.229.168 0 .219-.09.248-.229.029-.13.021-.227-.149-.227zm-.143.668c-.347 0-.374-.216-.328-.441.048-.225.17-.439.517-.439.344 0 .376.214.328.439-.048.229-.17.441-.517.441zM25.557 19.787l.038-.332.019-.095c.027-.126.044-.218-.088-.218h-.103a.854.854 0 0 1-.025.216l-.09.429h-.195l.038-.332.019-.095c.027-.126.044-.218-.088-.218h-.084l-.139.645h-.225l.183-.859h.176l.027.052s.12-.063.216-.063c.073 0 .128.034.147.076a.643.643 0 0 1 .248-.076c.269 0 .26.218.212.441l-.09.428h-.195zM26.449 19.132c-.164 0-.216.092-.246.227-.027.137-.015.229.147.229.168 0 .219-.09.248-.229.029-.13.021-.227-.149-.227zm-.142.668c-.347 0-.374-.216-.328-.441.048-.225.17-.439.517-.439.345 0 .376.214.328.439-.048.229-.17.441-.517.441zM27.407 19.302c.029-.135.021-.16-.048-.16h-.105l-.067.315-.103.33h-.195l.16-.748.023-.109h.179l.023.05s.103-.061.204-.061c.214 0 .197.162.151.382h-.22zM28.159 19.121c-.113 0-.172.059-.195.164l.323-.027c.015-.071 0-.137-.128-.137zm-.226.319c-.015.105.025.141.16.141h.338l-.034.16s-.204.057-.355.057c-.376 0-.38-.212-.332-.439.048-.223.135-.443.498-.443.351 0 .368.212.281.525h-.557zM28.678 19.8c-.088 0-.143-.025-.12-.128.021-.105.086-.13.174-.13.082 0 .139.025.118.13-.023.101-.09.128-.172.128z"/></svg>