<svg xmlns="http://www.w3.org/2000/svg" width="32" height="32" viewBox="0 0 32 32"><path fill="#78758c" d="M22.325 15.775l-.225-.387-7.537-2.463-.213.25-.325.075-6.7 15.65.088.475 16.137-6.813.137-.275-1.125-6.25-.238-.262z"/><path fill="#a3edba" d="M7.412 29.375l6.938-16.2L.1 8.525l7.313 20.85z"/><path fill="#8087e8" d="M19.637.85L14.35 13.175l7.975 2.6.038-.1L19.688.962l-.05-.113z"/><path fill="#30426b" d="M22.325 15.775l1.225 6.787.563-.012 7.637-3.313.337-.288-.4-.337-8.988-3.025-.375.188z"/><path fill="#6699a1" d="M23.55 22.563l1.563 8.675 6.975-12.287-8.538 3.613zM19.637.85l2.688 14.925 9.762 3.175L19.637.85z"/></svg>