<svg xmlns="http://www.w3.org/2000/svg" width="32" height="32" viewBox="0 0 32 32"><path fill="#cf649a" d="M27.538 17.788a6.59 6.59 0 0 0-2.9.675c-.3-.594-.6-1.113-.65-1.5-.056-.45-.125-.725-.056-1.262s.381-1.3.381-1.363c-.006-.056-.069-.331-.712-.338s-1.2.125-1.262.294a7.062 7.062 0 0 0-.269.956c-.113.588-1.288 2.669-1.956 3.763-.219-.425-.406-.8-.444-1.1-.056-.45-.125-.725-.056-1.262s.381-1.3.381-1.363c-.006-.056-.069-.331-.712-.338s-1.2.125-1.262.294-.131.569-.269.956c-.131.387-1.694 3.863-2.1 4.769-.206.462-.387.831-.519 1.081s-.006.019-.019.044l-.175.331v.006c-.088.156-.181.306-.225.306-.031 0-.094-.419.012-.994.231-1.206.794-3.087.788-3.156 0-.031.106-.363-.363-.531-.456-.169-.619.113-.656.113s-.069.1-.069.1.506-2.119-.969-2.119c-.925 0-2.2 1.006-2.831 1.925-.4.219-1.25.681-2.15 1.175-.344.188-.7.387-1.037.569l-.069-.075c-1.788-1.906-5.094-3.256-4.956-5.819.05-.931.375-3.388 6.35-6.362 4.894-2.438 8.813-1.769 9.494-.281.969 2.125-2.094 6.075-7.181 6.644-1.938.219-2.956-.531-3.213-.813-.269-.294-.306-.306-.406-.25-.162.088-.063.35 0 .506.15.394.775 1.094 1.838 1.444.931.306 3.206.475 5.956-.588 3.081-1.194 5.488-4.506 4.781-7.275-.719-2.819-5.394-3.744-9.813-2.175-2.631.938-5.481 2.4-7.531 4.319C.251 11.369-.136 13.356.026 14.182c.569 2.944 4.625 4.862 6.25 6.281l-.225.125c-.813.4-3.906 2.019-4.681 3.731-.875 1.938.137 3.331.813 3.519 2.088.581 4.225-.462 5.381-2.181 1.15-1.719 1.012-3.95.481-4.969l-.019-.038.637-.375c.413-.244.819-.469 1.175-.663-.2.544-.344 1.188-.419 2.125-.088 1.1.363 2.525.956 3.087.262.244.575.25.769.25.688 0 1-.569 1.344-1.25.425-.831.8-1.794.8-1.794s-.469 2.606.813 2.606c.469 0 .938-.606 1.15-.919v.006l.037-.063c.05-.075.075-.119.075-.119v-.012c.188-.325.606-1.069 1.231-2.3.806-1.587 1.581-3.575 1.581-3.575s.075.488.306 1.288c.137.475.437.994.669 1.5-.188.262-.3.413-.3.413l.006.006c-.15.2-.319.413-.494.625-.637.762-1.4 1.631-1.5 1.881-.119.294-.094.512.137.688.169.125.469.15.788.125a3.507 3.507 0 0 0 1.175-.269 4.06 4.06 0 0 0 1.012-.531c.625-.462 1.006-1.119.969-1.994-.019-.481-.175-.956-.369-1.406.056-.081.113-.163.169-.25.988-1.444 1.75-3.031 1.75-3.031s.075.488.306 1.288c.119.406.356.85.569 1.288-.925.756-1.506 1.631-1.706 2.206-.369 1.063-.081 1.544.462 1.656.244.05.594-.063.856-.175a3.881 3.881 0 0 0 1.081-.556c.625-.462 1.225-1.106 1.194-1.975a3.788 3.788 0 0 0-.269-1.169c.788-.325 1.806-.512 3.1-.356 2.781.325 3.331 2.063 3.225 2.788s-.688 1.125-.881 1.25c-.194.119-.256.163-.238.25.025.131.113.125.281.1.231-.038 1.462-.594 1.512-1.931.075-1.719-1.556-3.594-4.45-3.575zm-21.45 7.231c-.919 1.006-2.212 1.387-2.763 1.063-.594-.344-.363-1.825.769-2.894.688-.65 1.581-1.25 2.169-1.619.131-.081.331-.2.569-.344a.624.624 0 0 1 .063-.038c.044-.025.094-.056.144-.087.419 1.525.019 2.863-.95 3.919zm6.718-4.569c-.319.781-.994 2.788-1.4 2.675-.35-.094-.563-1.613-.069-3.113.25-.756.781-1.656 1.094-2.006.506-.563 1.056-.75 1.194-.519.162.3-.619 2.475-.819 2.963zm5.544 2.65c-.137.069-.262.119-.319.081-.044-.025.056-.119.056-.119s.694-.744.969-1.087c.156-.2.344-.431.544-.694v.075c0 .9-.862 1.5-1.25 1.744zm4.275-.975c-.1-.075-.087-.306.25-1.031.131-.288.431-.769.95-1.225.063.188.1.369.094.538-.006 1.125-.806 1.544-1.294 1.719z"/></svg>