<svg xmlns="http://www.w3.org/2000/svg" width="32" height="32" viewBox="0 0 32 32"><path fill="#ff4081" d="M19.2 27.122L6.399 4.95H12.8l12.801 22.172H19.2z"/><path opacity=".2" fill="#fff" d="M19.2 27.122l3.2-5.543 3.201 5.543H19.2z"/><path opacity=".1" fill="#fff" d="M16 21.579l3.2 5.543 3.2-5.543H16z"/><path opacity=".1" d="M12.8 16.037L16 21.58l3.2-5.543h-6.4z"/><path opacity=".2" d="M12.8 16.037l3.2-5.543 3.2 5.543h-6.4z"/><path opacity=".3" d="M9.6 10.494l3.2 5.543 3.2-5.543H9.6z"/><path opacity=".4" d="M9.6 10.494l3.2-5.543 3.2 5.543H9.6z"/><path opacity=".5" d="M6.399 4.951L9.6 10.494l3.2-5.543H6.399z"/><path fill="#536dfe" d="M6.399 27.122L-.002 16.036l3.201-5.543L12.8 27.122H6.399z"/><path opacity=".2" fill="#fff" d="M6.399 27.122L9.6 21.579l3.2 5.543H6.399z"/><path opacity=".1" fill="#fff" d="M3.199 21.579l3.2 5.543L9.6 21.579H3.199z"/><path opacity=".1" d="M-.002 16.037l3.201 5.543 3.2-5.543H-.002z"/><path opacity=".2" d="M-.002 16.037l3.201-5.543 3.2 5.543H-.002z"/><path fill="#303f9f" d="M6.399 16.037l-3.2-5.543 3.2-5.543L9.6 10.494l-3.201 5.543z"/><path opacity=".2" d="M9.6 10.494L6.399 4.951l-3.2 5.543H9.6z"/><path fill="#3f51b5" d="M25.601 27.122L22.4 21.579l3.201-5.543 3.2 5.543-3.2 5.543z"/><path opacity=".2" d="M28.801 21.579l-3.2 5.543-3.201-5.543h6.401z"/><path fill="#7986cb" d="M28.801 21.579L19.2 4.95h6.401l6.401 11.086-3.201 5.543z"/><path opacity=".2" fill="#fff" d="M25.601 16.037l3.2 5.543 3.201-5.543h-6.401z"/><path opacity=".1" fill="#fff" d="M25.601 16.037l3.2-5.543 3.201 5.543h-6.401z"/><path opacity=".1" d="M22.4 10.494l3.201-5.543 3.2 5.543H22.4z"/><path opacity=".2" d="M19.2 4.951l3.2 5.543 3.201-5.543H19.2z"/></svg>