<svg xmlns="http://www.w3.org/2000/svg" width="32" height="32" viewBox="0 0 32 32"><path d="M.231 22.958l3.594-2.175c.693 1.229 1.324 2.269 2.837 2.269 1.45 0 2.364-.567 2.364-2.774V5.273h4.413v15.068c0 4.571-2.679 6.651-6.588 6.651-3.53 0-5.58-1.828-6.62-4.035zM15.836 22.486l3.593-2.081c.946 1.545 2.175 2.68 4.35 2.68 1.829 0 2.995-.914 2.995-2.175 0-1.513-1.198-2.049-3.215-2.931l-1.103-.473c-3.184-1.355-5.296-3.058-5.296-6.651 0-3.31 2.522-5.832 6.462-5.832 2.806 0 4.823.977 6.273 3.531l-3.436 2.207c-.757-1.355-1.576-1.891-2.837-1.891-1.292 0-2.112.82-2.112 1.891 0 1.324.82 1.86 2.711 2.68l1.103.473c3.751 1.608 5.864 3.247 5.864 6.935 0 3.972-3.121 6.147-7.313 6.147-4.098 0-6.746-1.954-8.038-4.508z"/></svg>