<svg xmlns="http://www.w3.org/2000/svg" width="32" height="32" viewBox="0 0 32 32"><path fill="#b3b3b3" d="M15.953.04L.93 5.327 3.304 25.01l12.665 6.961 12.73-7.055 2.373-19.682L15.953.041z"/><path fill="#a6120d" d="M29.574 6.371L15.918 1.714v28.593l11.444-6.334L29.574 6.37z"/><path fill="#dd1b16" d="M2.616 6.455L4.65 24.058l11.268 6.25V1.714L2.616 6.455z"/><path fill="#f2f2f2" d="M19.677 16.936l-3.759 1.758h-3.962l-1.862 4.658-3.464.064 9.288-20.663 3.759 14.183zm-.363-.885l-3.371-6.673-2.765 6.558h2.74l3.396.115z"/><path fill="#b3b3b3" d="M15.918 2.753l.025 6.625 3.137 6.563h-3.155l-.007 2.748 4.363.004 2.039 4.723 3.315.061-9.716-20.726z"/></svg>