<svg xmlns="http://www.w3.org/2000/svg" width="32" height="32" viewBox="0 0 32 32"><path fill="#8993be" d="M32 15.954c0 4.6-7.163 8.329-16 8.329S0 20.554 0 15.954c0-4.6 7.163-8.329 16-8.329s16 3.729 16 8.329z"/><path fill="#232531" d="M4.493 20.885h2.082l.438-2.301h1.973c1.863.11 3.945-1.425 3.945-4.055 0-1.534-.877-2.411-2.63-2.521H6.246l-1.753 8.877zm2.959-3.945L8 13.652h1.425c.767 0 1.315.329 1.315.986-.11 1.863-.986 2.192-1.973 2.301H7.452zM12.524 18.584l1.753-8.877h2.082l-.438 2.301h1.973c1.753.11 2.411.986 2.192 2.082l-.767 4.493h-2.192l.767-4.055c.11-.548.11-.877-.658-.877h-1.644l-.986 4.931h-2.082zM19.178 20.885h2.082l.438-2.301h1.973c1.863.11 3.945-1.425 3.945-4.055 0-1.534-.877-2.411-2.63-2.521h-4.055l-1.753 8.877zm2.959-3.945l.548-3.288h1.425c.767 0 1.315.329 1.315.986-.11 1.863-.986 2.192-1.973 2.301h-1.315z"/></svg>