<svg viewBox="0 0 504 504" xmlns="http://www.w3.org/2000/svg"><path d="M452.2 251.6c-9.2 58.5-27.1 75.6-58.8 114.9-31.7 33.3-77.3 88.9-141.9 85.8-58.5-9.2-75.6-27.1-114.9-58.8-33.3-31.7-88.9-77.3-85.8-141.9 9.2-58.5 27.1-75.6 58.8-114.9 31.7-33.3 77.3-88.9 141.9-85.8 58.5 9.2 75.6 27.1 114.9 58.8 33.3 31.7 88.9 77.3 85.8 141.9z" fill="#3765AF"/><g fill="#FFF"><path d="M257 230.6s0-36 36-36h108s0 36-36 36H257zM257 276.7s0-36 36-36h54s0 36-36 36h-54zM257 322.7s0-36 36-36h18s0 36-36 36h-18z"/><path d="M244.9 294.6v28.7H129l74.6-101.8h-63.9v-28.7h120.7l-74.3 101.8z"/></g></svg>