<svg xmlns="http://www.w3.org/2000/svg" width="32" height="32" viewBox="0 0 32 32"><path fill="#2062af" d="M24.963 29.04L16 31.453 7.037 29.04 4.969 6.633h22.063L24.963 29.04z"/><path fill="#3c9cd7" d="M16 8.447v21.081l.02.006 7.253-1.953 1.674-19.133h-8.948z"/><path d="M10.913 3.34V2.006h1.946V.547H9.454v4.125h3.405V3.34h-1.946zm5.446-1.334h1.36V.547h-3.406v1.459c.456.456.693.674 1.352 1.333l-1.352.001v1.332h3.406V3.34l-1.36-1.334zm4.827 0h1.36V.547H19.14v1.459c.456.456.693.674 1.352 1.333l-1.352.001v1.332h3.406V3.34l-1.36-1.334z"/><path fill="#fff" d="M15.992 14.05l-6.415 2.672.213 2.645 12.8-5.473.274-2.706-6.871 2.862z"/><path d="M9.577 16.722l.213 2.645 6.202-2.652V14.05l-6.415 2.672zM22.863 11.188l-6.871 2.862v2.665l6.598-2.821.274-2.706z"/><path d="M9.587 16.722l.213 2.645 9.517.03-.213 3.527-3.131.882-3.01-.76-.182-2.189H9.984l.365 4.226 5.655 1.672 5.625-1.642.73-8.391H9.589z"/><path opacity=".05" d="M15.992 16.722H9.577l.213 2.645 6.202.02v-2.665zm0 7.075l-.03.009-3.01-.76-.182-2.189H9.973l.365 4.226 5.655 1.672v-2.958z"/><path d="M8.999 11.188h13.864l-.274 2.706H9.333l-.334-2.706z"/><path opacity=".05" d="M15.992 11.188H8.999l.334 2.706h6.658v-2.706z"/></svg>